<svg width="174" height="129" viewBox="0 0 174 129" fill="none" xmlns="http://www.w3.org/2000/svg">
<path d="M35.45 26.65V22.4H22.05V51.6H35.45V47.35C32.705 47.35 30.0724 46.2595 28.1315 44.3185C26.1905 42.3775 25.1 39.745 25.1 37C25.1 34.255 26.1905 31.6224 28.1315 29.6815C30.0724 27.7405 32.705 26.65 35.45 26.65Z" fill="#3563E9"/>
<path d="M35.45 26.65V47.35C38.195 47.35 40.8276 46.2595 42.7686 44.3185C44.7096 42.3775 45.8 39.745 45.8 37C45.8 34.255 44.7096 31.6224 42.7686 29.6815C40.8276 27.7405 38.195 26.65 35.45 26.65Z" fill="#3563E9"/>
<path d="M53.3199 29.25H56.3199V43.7H53.3199V29.25Z" fill="#3563E9"/>
<path d="M58 38.75C58 37.7104 58.3087 36.6942 58.8869 35.8302C59.4651 34.9662 60.2868 34.2933 61.2479 33.8968C62.209 33.5004 63.2661 33.3982 64.2853 33.6032C65.3045 33.8082 66.2399 34.3112 66.9729 35.0484C67.7059 35.7857 68.2036 36.7239 68.4028 37.7443C68.6019 38.7647 68.4937 39.8212 68.0917 40.78C67.6897 41.7387 67.0122 42.5566 66.1449 43.1298C65.2776 43.7031 64.2596 44.0059 63.22 44C62.5305 44.0054 61.8468 43.8731 61.2091 43.6107C60.5714 43.3484 59.9924 42.9614 59.5062 42.4725C59.02 41.9835 58.6364 41.4023 58.3777 40.7631C58.1191 40.1239 57.9907 39.4395 58 38.75ZM65.52 38.75C65.5082 38.3018 65.3645 37.867 65.1069 37.5001C64.8493 37.1331 64.4893 36.8502 64.0717 36.6868C63.6542 36.5234 63.1978 36.4867 62.7596 36.5814C62.3213 36.676 61.9207 36.8977 61.6078 37.2189C61.2949 37.54 61.0836 37.9462 61.0004 38.3868C60.9172 38.8274 60.9657 39.2827 61.1399 39.6958C61.3141 40.1089 61.6062 40.4616 61.9798 40.7095C62.3533 40.9575 62.7916 41.0898 63.24 41.09C63.5453 41.096 63.8485 41.0389 64.1307 40.9223C64.4129 40.8058 64.668 40.6323 64.8801 40.4127C65.0922 40.1931 65.2567 39.932 65.3634 39.646C65.4701 39.3599 65.5166 39.0549 65.5 38.75H65.52Z" fill="#3563E9"/>
<path d="M80.31 33.8V43.21C80.31 46.53 77.71 47.94 75.08 47.94C74.1523 48.0161 73.2218 47.8318 72.3933 47.4078C71.5647 46.9838 70.8709 46.3369 70.39 45.54L72.92 44.08C73.125 44.4934 73.4511 44.8344 73.8549 45.0577C74.2587 45.281 74.7209 45.376 75.18 45.33C75.4725 45.366 75.7693 45.337 76.0492 45.245C76.3292 45.1529 76.5853 45.0002 76.7993 44.7976C77.0134 44.595 77.18 44.3477 77.2873 44.0732C77.3946 43.7988 77.4399 43.504 77.42 43.21V42.3C77.0709 42.7233 76.6279 43.0593 76.1263 43.2815C75.6246 43.5037 75.0781 43.6059 74.53 43.58C73.2039 43.58 71.9322 43.0532 70.9945 42.1155C70.0568 41.1779 69.53 39.9061 69.53 38.58C69.53 37.2539 70.0568 35.9822 70.9945 35.0445C71.9322 34.1068 73.2039 33.58 74.53 33.58C75.0781 33.5541 75.6246 33.6563 76.1263 33.8785C76.6279 34.1007 77.0709 34.4367 77.42 34.86V33.86L80.31 33.8ZM77.42 38.55C77.4399 38.0716 77.3163 37.5981 77.065 37.1905C76.8137 36.7829 76.4463 36.4598 76.0098 36.2627C75.5734 36.0656 75.0881 36.0036 74.6161 36.0846C74.1442 36.1656 73.7072 36.3859 73.3615 36.7172C73.0158 37.0485 72.7771 37.4757 72.6761 37.9438C72.5751 38.4119 72.6164 38.8994 72.7947 39.3438C72.9731 39.7882 73.2803 40.1691 73.6768 40.4375C74.0734 40.7059 74.5412 40.8496 75.02 40.85C75.3325 40.8725 75.6462 40.8292 75.9408 40.723C76.2355 40.6167 76.5047 40.4498 76.7308 40.233C76.957 40.0163 77.1352 39.7545 77.2539 39.4646C77.3726 39.1747 77.4292 38.8631 77.42 38.55Z" fill="#3563E9"/>
<path d="M82 38.75C82 37.7112 82.3082 36.6958 82.8855 35.8322C83.4628 34.9686 84.2833 34.2957 85.2432 33.8987C86.2031 33.5016 87.2592 33.3982 88.2779 33.6016C89.2966 33.805 90.232 34.306 90.9659 35.0412C91.6997 35.7765 92.1989 36.7129 92.4003 37.7319C92.6018 38.751 92.4964 39.8069 92.0975 40.766C91.6986 41.7252 91.0241 42.5444 90.1595 43.1201C89.2948 43.6958 88.2788 44.002 87.24 44C86.5492 44.0067 85.8639 43.8754 85.2245 43.6138C84.5851 43.3522 84.0043 42.9656 83.5163 42.4766C83.0282 41.9876 82.6427 41.4061 82.3823 40.7662C82.122 40.1263 81.992 39.4408 82 38.75ZM89.52 38.75C89.5082 38.3014 89.3642 37.8662 89.1062 37.499C88.8482 37.1319 88.4875 36.849 88.0694 36.6859C87.6513 36.5228 87.1944 36.4867 86.7559 36.5822C86.3174 36.6776 85.9168 36.9004 85.6043 37.2225C85.2918 37.5446 85.0813 37.9518 84.9993 38.393C84.9172 38.8342 84.9671 39.2898 85.1428 39.7027C85.3185 40.1157 85.6122 40.4676 85.9871 40.7144C86.3619 40.9611 86.8012 41.0918 87.25 41.09C87.5553 41.096 87.8585 41.0389 88.1407 40.9223C88.4229 40.8058 88.678 40.6323 88.8901 40.4127C89.1022 40.1931 89.2667 39.932 89.3734 39.646C89.4801 39.3599 89.5266 39.0549 89.51 38.75H89.52Z" fill="#3563E9"/>
<path d="M93.87 31.15C93.87 30.798 93.9744 30.4538 94.17 30.1611C94.3656 29.8684 94.6436 29.6402 94.9688 29.5055C95.2941 29.3708 95.652 29.3355 95.9973 29.4042C96.3425 29.4729 96.6597 29.6424 96.9087 29.8913C97.1576 30.1403 97.3271 30.4575 97.3958 30.8027C97.4645 31.148 97.4292 31.5059 97.2945 31.8312C97.1598 32.1564 96.9316 32.4344 96.6389 32.63C96.3462 32.8256 96.0021 32.93 95.65 32.93C95.1795 32.9248 94.7298 32.7356 94.3971 32.4029C94.0644 32.0702 93.8752 31.6205 93.87 31.15ZM94.16 33.8H97.16V43.7H94.16V33.8Z" fill="#3563E9"/>
<path d="M110 38.75C110.034 39.4084 109.937 40.067 109.715 40.6878C109.493 41.3086 109.15 41.8794 108.707 42.3673C108.264 42.8553 107.728 43.2507 107.132 43.5309C106.535 43.8111 105.889 43.9705 105.23 44C104.671 44.0372 104.111 43.9477 103.592 43.7382C103.072 43.5286 102.607 43.2045 102.23 42.79V47.68H99.23V33.8H102.23V34.73C102.607 34.3167 103.073 33.9941 103.592 33.7863C104.112 33.5784 104.672 33.4908 105.23 33.53C105.886 33.5595 106.53 33.718 107.124 33.9963C107.719 34.2746 108.253 34.6674 108.696 35.1521C109.139 35.6368 109.482 36.204 109.706 36.8214C109.93 37.4387 110.03 38.094 110 38.75ZM107 38.75C106.988 38.2855 106.839 37.8349 106.573 37.4546C106.306 37.0743 105.933 36.7811 105.5 36.612C105.067 36.4428 104.594 36.4052 104.14 36.5037C103.686 36.6022 103.271 36.8326 102.948 37.1659C102.624 37.4992 102.406 37.9206 102.321 38.3774C102.236 38.8341 102.287 39.3058 102.469 39.7334C102.651 40.1609 102.955 40.5253 103.343 40.7809C103.731 41.0365 104.185 41.1718 104.65 41.17C104.968 41.1835 105.286 41.1296 105.582 41.0118C105.878 40.894 106.145 40.715 106.367 40.4865C106.589 40.258 106.76 39.9851 106.869 39.6859C106.978 39.3866 107.023 39.0677 107 38.75Z" fill="#3563E9"/>
<path d="M119.13 40.73C119.13 43.01 117.13 43.98 115.01 43.98C114.145 44.0578 113.277 43.8745 112.518 43.4538C111.758 43.0331 111.143 42.3943 110.75 41.62L113.33 40.16C113.432 40.5168 113.654 40.8277 113.958 41.0407C114.262 41.2537 114.63 41.3558 115 41.33C115.71 41.33 116.07 41.11 116.07 40.71C116.07 39.62 111.2 40.2 111.2 36.77C111.2 34.61 113.02 33.53 115.08 33.53C115.863 33.4949 116.641 33.6726 117.331 34.0441C118.021 34.4156 118.598 34.9671 119 35.64L116.42 37C116.306 36.742 116.12 36.5226 115.884 36.3682C115.648 36.2138 115.372 36.1311 115.09 36.13C114.57 36.13 114.26 36.33 114.26 36.68C114.26 37.82 119.13 37.07 119.13 40.73Z" fill="#3563E9"/>
<path d="M130 33.8V43.7H127V42.77C126.659 43.1817 126.226 43.5074 125.737 43.7211C125.247 43.9348 124.714 44.0303 124.18 44C122.18 44 120.47 42.57 120.47 39.9V33.8H123.47V39.45C123.446 39.6862 123.474 39.9247 123.552 40.1491C123.63 40.3734 123.755 40.5782 123.919 40.7494C124.084 40.9205 124.284 41.0539 124.505 41.1404C124.726 41.2268 124.963 41.2642 125.2 41.25C126.28 41.25 127.04 40.61 127.04 39.25V33.8H130Z" fill="#3563E9"/>
<path d="M147 37.62V43.7H144V37.88C144 36.88 143.53 36.26 142.58 36.26C141.63 36.26 141.03 36.95 141.03 38.12V43.7H138.03V37.88C138.03 36.88 137.56 36.26 136.61 36.26C135.66 36.26 135.06 36.95 135.06 38.12V43.7H132.06V33.8H135.06V34.71C135.371 34.308 135.776 33.9896 136.241 33.7836C136.705 33.5776 137.214 33.4904 137.72 33.53C138.227 33.5035 138.733 33.6095 139.187 33.8374C139.641 34.0653 140.028 34.4074 140.31 34.83C140.64 34.3884 141.076 34.0376 141.578 33.8103C142.079 33.5829 142.631 33.4865 143.18 33.53C145.52 33.53 147 35.15 147 37.62Z" fill="#3563E9"/>
<path d="M149.52 33.74C150.735 33.74 151.72 32.755 151.72 31.54C151.72 30.325 150.735 29.34 149.52 29.34C148.305 29.34 147.32 30.325 147.32 31.54C147.32 32.755 148.305 33.74 149.52 33.74Z" fill="#3563E9"/>
<path d="M35.45 81.65V77.4H22.05V106.6H35.45V102.35C32.705 102.35 30.0724 101.26 28.1315 99.3185C26.1905 97.3775 25.1 94.745 25.1 92C25.1 89.255 26.1905 86.6224 28.1315 84.6815C30.0724 82.7405 32.705 81.65 35.45 81.65Z" fill="white"/>
<path d="M35.45 81.65V102.35C38.195 102.35 40.8276 101.26 42.7686 99.3185C44.7096 97.3775 45.8 94.745 45.8 92C45.8 89.255 44.7096 86.6224 42.7686 84.6815C40.8276 82.7405 38.195 81.65 35.45 81.65Z" fill="white"/>
<path d="M53.3199 84.25H56.3199V98.7H53.3199V84.25Z" fill="white"/>
<path d="M58 93.75C58 92.7104 58.3087 91.6942 58.8869 90.8302C59.4651 89.9662 60.2868 89.2933 61.2479 88.8968C62.209 88.5004 63.2661 88.3982 64.2853 88.6032C65.3045 88.8082 66.2399 89.3112 66.9729 90.0484C67.7059 90.7857 68.2036 91.7239 68.4028 92.7443C68.6019 93.7647 68.4937 94.8212 68.0917 95.78C67.6897 96.7387 67.0122 97.5566 66.1449 98.1298C65.2776 98.7031 64.2596 99.0059 63.22 99C62.5305 99.0054 61.8468 98.8731 61.2091 98.6107C60.5714 98.3484 59.9924 97.9614 59.5062 97.4725C59.02 96.9835 58.6364 96.4023 58.3777 95.7631C58.1191 95.1239 57.9907 94.4395 58 93.75ZM65.52 93.75C65.5082 93.3018 65.3645 92.867 65.1069 92.5001C64.8493 92.1331 64.4893 91.8502 64.0717 91.6868C63.6542 91.5234 63.1978 91.4867 62.7596 91.5814C62.3213 91.676 61.9207 91.8977 61.6078 92.2189C61.2949 92.54 61.0836 92.9462 61.0004 93.3868C60.9172 93.8274 60.9657 94.2827 61.1399 94.6958C61.3141 95.1089 61.6062 95.4616 61.9798 95.7095C62.3533 95.9575 62.7916 96.0898 63.24 96.09C63.5453 96.096 63.8485 96.0389 64.1307 95.9223C64.4129 95.8058 64.668 95.6323 64.8801 95.4127C65.0922 95.1931 65.2567 94.932 65.3634 94.646C65.4701 94.3599 65.5166 94.0549 65.5 93.75H65.52Z" fill="white"/>
<path d="M80.31 88.8V98.21C80.31 101.53 77.71 102.94 75.08 102.94C74.1523 103.016 73.2218 102.832 72.3933 102.408C71.5647 101.984 70.8709 101.337 70.39 100.54L72.92 99.08C73.125 99.4934 73.4511 99.8344 73.8549 100.058C74.2587 100.281 74.7209 100.376 75.18 100.33C75.4725 100.366 75.7693 100.337 76.0492 100.245C76.3292 100.153 76.5853 100 76.7993 99.7976C77.0134 99.595 77.18 99.3477 77.2873 99.0732C77.3946 98.7988 77.4399 98.504 77.42 98.21V97.3C77.0709 97.7233 76.6279 98.0593 76.1263 98.2815C75.6246 98.5037 75.0781 98.6059 74.53 98.58C73.2039 98.58 71.9322 98.0532 70.9945 97.1155C70.0568 96.1779 69.53 94.9061 69.53 93.58C69.53 92.2539 70.0568 90.9822 70.9945 90.0445C71.9322 89.1068 73.2039 88.58 74.53 88.58C75.0781 88.5541 75.6246 88.6563 76.1263 88.8785C76.6279 89.1007 77.0709 89.4367 77.42 89.86V88.86L80.31 88.8ZM77.42 93.55C77.4399 93.0716 77.3163 92.5981 77.065 92.1905C76.8137 91.7829 76.4463 91.4598 76.0098 91.2627C75.5734 91.0656 75.0881 91.0036 74.6161 91.0846C74.1442 91.1656 73.7072 91.3859 73.3615 91.7172C73.0158 92.0485 72.7771 92.4757 72.6761 92.9438C72.5751 93.4119 72.6164 93.8994 72.7947 94.3438C72.9731 94.7882 73.2803 95.1691 73.6768 95.4375C74.0734 95.7059 74.5412 95.8496 75.02 95.85C75.3325 95.8725 75.6462 95.8292 75.9408 95.723C76.2355 95.6167 76.5047 95.4498 76.7308 95.233C76.957 95.0163 77.1352 94.7545 77.2539 94.4646C77.3726 94.1747 77.4292 93.8631 77.42 93.55Z" fill="white"/>
<path d="M82 93.75C82 92.7112 82.3082 91.6958 82.8855 90.8322C83.4628 89.9686 84.2833 89.2957 85.2432 88.8987C86.2031 88.5016 87.2592 88.3982 88.2779 88.6016C89.2966 88.805 90.232 89.306 90.9659 90.0412C91.6997 90.7765 92.1989 91.7129 92.4003 92.7319C92.6018 93.751 92.4964 94.8069 92.0975 95.766C91.6986 96.7252 91.0241 97.5444 90.1595 98.1201C89.2948 98.6958 88.2788 99.002 87.24 99C86.5492 99.0067 85.8639 98.8754 85.2245 98.6138C84.5851 98.3522 84.0043 97.9656 83.5163 97.4766C83.0282 96.9876 82.6427 96.4061 82.3823 95.7662C82.122 95.1263 81.992 94.4408 82 93.75ZM89.52 93.75C89.5082 93.3014 89.3642 92.8662 89.1062 92.499C88.8482 92.1319 88.4875 91.849 88.0694 91.6859C87.6513 91.5228 87.1944 91.4867 86.7559 91.5822C86.3174 91.6776 85.9168 91.9004 85.6043 92.2225C85.2918 92.5446 85.0813 92.9518 84.9993 93.393C84.9172 93.8342 84.9671 94.2898 85.1428 94.7027C85.3185 95.1157 85.6122 95.4676 85.9871 95.7144C86.3619 95.9611 86.8012 96.0918 87.25 96.09C87.5553 96.096 87.8585 96.0389 88.1407 95.9223C88.4229 95.8058 88.678 95.6323 88.8901 95.4127C89.1022 95.1931 89.2667 94.932 89.3734 94.646C89.4801 94.3599 89.5266 94.0549 89.51 93.75H89.52Z" fill="white"/>
<path d="M93.87 86.15C93.87 85.798 93.9744 85.4538 94.17 85.1611C94.3656 84.8684 94.6436 84.6402 94.9688 84.5055C95.2941 84.3708 95.652 84.3355 95.9973 84.4042C96.3425 84.4729 96.6597 84.6424 96.9087 84.8913C97.1576 85.1403 97.3271 85.4575 97.3958 85.8027C97.4645 86.148 97.4292 86.5059 97.2945 86.8312C97.1598 87.1564 96.9316 87.4344 96.6389 87.63C96.3462 87.8256 96.0021 87.93 95.65 87.93C95.1795 87.9248 94.7298 87.7356 94.3971 87.4029C94.0644 87.0702 93.8752 86.6205 93.87 86.15ZM94.16 88.8H97.16V98.7H94.16V88.8Z" fill="white"/>
<path d="M110 93.75C110.034 94.4084 109.937 95.067 109.715 95.6878C109.493 96.3086 109.15 96.8794 108.707 97.3673C108.264 97.8553 107.728 98.2507 107.132 98.5309C106.535 98.8111 105.889 98.9705 105.23 99C104.671 99.0372 104.111 98.9477 103.592 98.7382C103.072 98.5286 102.607 98.2045 102.23 97.79V102.68H99.23V88.8H102.23V89.73C102.607 89.3167 103.073 88.9941 103.592 88.7863C104.112 88.5784 104.672 88.4908 105.23 88.53C105.886 88.5595 106.53 88.718 107.124 88.9963C107.719 89.2746 108.253 89.6674 108.696 90.1521C109.139 90.6368 109.482 91.204 109.706 91.8214C109.93 92.4387 110.03 93.094 110 93.75ZM107 93.75C106.988 93.2855 106.839 92.8349 106.573 92.4546C106.306 92.0743 105.933 91.7811 105.5 91.612C105.067 91.4428 104.594 91.4052 104.14 91.5037C103.686 91.6022 103.271 91.8326 102.948 92.1659C102.624 92.4992 102.406 92.9206 102.321 93.3774C102.236 93.8341 102.287 94.3058 102.469 94.7334C102.651 95.1609 102.955 95.5253 103.343 95.7809C103.731 96.0365 104.185 96.1718 104.65 96.17C104.968 96.1835 105.286 96.1296 105.582 96.0118C105.878 95.894 106.145 95.715 106.367 95.4865C106.589 95.258 106.76 94.9851 106.869 94.6859C106.978 94.3866 107.023 94.0677 107 93.75Z" fill="white"/>
<path d="M119.13 95.73C119.13 98.01 117.13 98.98 115.01 98.98C114.145 99.0578 113.277 98.8745 112.518 98.4538C111.758 98.0331 111.143 97.3943 110.75 96.62L113.33 95.16C113.432 95.5168 113.654 95.8277 113.958 96.0407C114.262 96.2537 114.63 96.3558 115 96.33C115.71 96.33 116.07 96.11 116.07 95.71C116.07 94.62 111.2 95.2 111.2 91.77C111.2 89.61 113.02 88.53 115.08 88.53C115.863 88.4949 116.641 88.6726 117.331 89.0441C118.021 89.4156 118.598 89.9671 119 90.64L116.42 92C116.306 91.742 116.12 91.5226 115.884 91.3682C115.648 91.2138 115.372 91.1311 115.09 91.13C114.57 91.13 114.26 91.33 114.26 91.68C114.26 92.82 119.13 92.07 119.13 95.73Z" fill="white"/>
<path d="M130 88.8V98.7H127V97.77C126.659 98.1817 126.226 98.5074 125.737 98.7211C125.247 98.9348 124.714 99.0303 124.18 99C122.18 99 120.47 97.57 120.47 94.9V88.8H123.47V94.45C123.446 94.6862 123.474 94.9247 123.552 95.1491C123.63 95.3734 123.755 95.5782 123.919 95.7494C124.084 95.9205 124.284 96.0539 124.505 96.1404C124.726 96.2268 124.963 96.2642 125.2 96.25C126.28 96.25 127.04 95.61 127.04 94.25V88.8H130Z" fill="white"/>
<path d="M147 92.62V98.7H144V92.88C144 91.88 143.53 91.26 142.58 91.26C141.63 91.26 141.03 91.95 141.03 93.12V98.7H138.03V92.88C138.03 91.88 137.56 91.26 136.61 91.26C135.66 91.26 135.06 91.95 135.06 93.12V98.7H132.06V88.8H135.06V89.71C135.371 89.308 135.776 88.9896 136.241 88.7836C136.705 88.5776 137.214 88.4904 137.72 88.53C138.227 88.5035 138.733 88.6095 139.187 88.8374C139.641 89.0653 140.028 89.4074 140.31 89.83C140.64 89.3884 141.076 89.0376 141.578 88.8103C142.079 88.5829 142.631 88.4865 143.18 88.53C145.52 88.53 147 90.15 147 92.62Z" fill="white"/>
<path d="M149.52 88.74C150.735 88.74 151.72 87.755 151.72 86.54C151.72 85.325 150.735 84.34 149.52 84.34C148.305 84.34 147.32 85.325 147.32 86.54C147.32 87.755 148.305 88.74 149.52 88.74Z" fill="white"/>
</svg>
